<mxfile host="app.diagrams.net" modified="2023-07-08T12:32:38.379Z" agent="Mozilla/5.0 (Macintosh; Intel Mac OS X 10_15_7) AppleWebKit/537.36 (KHTML, like Gecko) Chrome/114.0.0.0 Safari/537.36" etag="tky2VvTNS96wDobqvvUi" version="21.3.8" type="google">
  <diagram name="Page-1" id="ozMHpFwXy5fk4nJRAXI8">
    <mxGraphModel grid="1" page="1" gridSize="10" guides="1" tooltips="1" connect="1" arrows="1" fold="1" pageScale="1" pageWidth="1169" pageHeight="827" math="0" shadow="0">
      <root>
        <mxCell id="0" />
        <mxCell id="1" parent="0" />
        <mxCell id="k9dNd58MIY_r8E8UFFgz-22" value="SICXE" style="swimlane;fontStyle=0;childLayout=stackLayout;horizontal=1;startSize=30;horizontalStack=0;resizeParent=1;resizeParentMax=0;resizeLast=0;collapsible=1;marginBottom=0;whiteSpace=wrap;html=1;fontSize=15;fontFamily=Helvetica;" vertex="1" parent="1">
          <mxGeometry x="130" y="120" width="180" height="620" as="geometry" />
        </mxCell>
        <mxCell id="k9dNd58MIY_r8E8UFFgz-23" value="state" style="text;strokeColor=none;fillColor=none;align=left;verticalAlign=middle;spacingLeft=4;spacingRight=4;overflow=hidden;points=[[0,0.5],[1,0.5]];portConstraint=eastwest;rotatable=0;whiteSpace=wrap;html=1;fontSize=15;fontFamily=Helvetica;" vertex="1" parent="k9dNd58MIY_r8E8UFFgz-22">
          <mxGeometry y="30" width="180" height="30" as="geometry" />
        </mxCell>
        <mxCell id="k9dNd58MIY_r8E8UFFgz-24" value="type" style="text;strokeColor=none;fillColor=none;align=left;verticalAlign=middle;spacingLeft=4;spacingRight=4;overflow=hidden;points=[[0,0.5],[1,0.5]];portConstraint=eastwest;rotatable=0;whiteSpace=wrap;html=1;fontSize=15;fontFamily=Helvetica;" vertex="1" parent="k9dNd58MIY_r8E8UFFgz-22">
          <mxGeometry y="60" width="180" height="30" as="geometry" />
        </mxCell>
        <mxCell id="k9dNd58MIY_r8E8UFFgz-40" value="statement" style="text;strokeColor=none;fillColor=none;align=left;verticalAlign=middle;spacingLeft=4;spacingRight=4;overflow=hidden;points=[[0,0.5],[1,0.5]];portConstraint=eastwest;rotatable=0;whiteSpace=wrap;html=1;fontSize=15;fontFamily=Helvetica;" vertex="1" parent="k9dNd58MIY_r8E8UFFgz-22">
          <mxGeometry y="90" width="180" height="30" as="geometry" />
        </mxCell>
        <mxCell id="k9dNd58MIY_r8E8UFFgz-42" value="loc" style="text;strokeColor=none;fillColor=none;align=left;verticalAlign=middle;spacingLeft=4;spacingRight=4;overflow=hidden;points=[[0,0.5],[1,0.5]];portConstraint=eastwest;rotatable=0;whiteSpace=wrap;html=1;fontSize=15;fontFamily=Helvetica;" vertex="1" parent="k9dNd58MIY_r8E8UFFgz-22">
          <mxGeometry y="120" width="180" height="30" as="geometry" />
        </mxCell>
        <mxCell id="k9dNd58MIY_r8E8UFFgz-43" value="length" style="text;strokeColor=none;fillColor=none;align=left;verticalAlign=middle;spacingLeft=4;spacingRight=4;overflow=hidden;points=[[0,0.5],[1,0.5]];portConstraint=eastwest;rotatable=0;whiteSpace=wrap;html=1;fontSize=15;fontFamily=Helvetica;" vertex="1" parent="k9dNd58MIY_r8E8UFFgz-22">
          <mxGeometry y="150" width="180" height="30" as="geometry" />
        </mxCell>
        <mxCell id="k9dNd58MIY_r8E8UFFgz-44" value="label" style="text;strokeColor=none;fillColor=none;align=left;verticalAlign=middle;spacingLeft=4;spacingRight=4;overflow=hidden;points=[[0,0.5],[1,0.5]];portConstraint=eastwest;rotatable=0;whiteSpace=wrap;html=1;fontSize=15;fontFamily=Helvetica;" vertex="1" parent="k9dNd58MIY_r8E8UFFgz-22">
          <mxGeometry y="180" width="180" height="30" as="geometry" />
        </mxCell>
        <mxCell id="k9dNd58MIY_r8E8UFFgz-47" value="mnemonic" style="text;strokeColor=none;fillColor=none;align=left;verticalAlign=middle;spacingLeft=4;spacingRight=4;overflow=hidden;points=[[0,0.5],[1,0.5]];portConstraint=eastwest;rotatable=0;whiteSpace=wrap;html=1;fontSize=15;fontFamily=Helvetica;" vertex="1" parent="k9dNd58MIY_r8E8UFFgz-22">
          <mxGeometry y="210" width="180" height="30" as="geometry" />
        </mxCell>
        <mxCell id="k9dNd58MIY_r8E8UFFgz-46" value="opcode" style="text;strokeColor=none;fillColor=none;align=left;verticalAlign=middle;spacingLeft=4;spacingRight=4;overflow=hidden;points=[[0,0.5],[1,0.5]];portConstraint=eastwest;rotatable=0;whiteSpace=wrap;html=1;fontSize=15;fontFamily=Helvetica;" vertex="1" parent="k9dNd58MIY_r8E8UFFgz-22">
          <mxGeometry y="240" width="180" height="30" as="geometry" />
        </mxCell>
        <mxCell id="k9dNd58MIY_r8E8UFFgz-45" value="operand1" style="text;strokeColor=none;fillColor=none;align=left;verticalAlign=middle;spacingLeft=4;spacingRight=4;overflow=hidden;points=[[0,0.5],[1,0.5]];portConstraint=eastwest;rotatable=0;whiteSpace=wrap;html=1;fontSize=15;fontFamily=Helvetica;" vertex="1" parent="k9dNd58MIY_r8E8UFFgz-22">
          <mxGeometry y="270" width="180" height="30" as="geometry" />
        </mxCell>
        <mxCell id="k9dNd58MIY_r8E8UFFgz-48" value="operand2" style="text;strokeColor=none;fillColor=none;align=left;verticalAlign=middle;spacingLeft=4;spacingRight=4;overflow=hidden;points=[[0,0.5],[1,0.5]];portConstraint=eastwest;rotatable=0;whiteSpace=wrap;html=1;fontSize=15;fontFamily=Helvetica;" vertex="1" parent="k9dNd58MIY_r8E8UFFgz-22">
          <mxGeometry y="300" width="180" height="30" as="geometry" />
        </mxCell>
        <mxCell id="k9dNd58MIY_r8E8UFFgz-41" value="errorMsg" style="text;strokeColor=none;fillColor=none;align=left;verticalAlign=middle;spacingLeft=4;spacingRight=4;overflow=hidden;points=[[0,0.5],[1,0.5]];portConstraint=eastwest;rotatable=0;whiteSpace=wrap;html=1;fontSize=15;fontFamily=Helvetica;" vertex="1" parent="k9dNd58MIY_r8E8UFFgz-22">
          <mxGeometry y="330" width="180" height="30" as="geometry" />
        </mxCell>
        <mxCell id="k9dNd58MIY_r8E8UFFgz-66" value="Method" style="swimlane;fontSize=15;fontFamily=Helvetica;" vertex="1" parent="k9dNd58MIY_r8E8UFFgz-22">
          <mxGeometry y="360" width="180" height="260" as="geometry" />
        </mxCell>
        <mxCell id="k9dNd58MIY_r8E8UFFgz-25" value="format0 (for SIC)" style="text;strokeColor=none;fillColor=none;align=left;verticalAlign=middle;spacingLeft=4;spacingRight=4;overflow=hidden;points=[[0,0.5],[1,0.5]];portConstraint=eastwest;rotatable=0;whiteSpace=wrap;html=1;fontSize=15;fontFamily=Helvetica;" vertex="1" parent="k9dNd58MIY_r8E8UFFgz-66">
          <mxGeometry y="20" width="180" height="30" as="geometry" />
        </mxCell>
        <mxCell id="k9dNd58MIY_r8E8UFFgz-67" value="format1" style="text;strokeColor=none;fillColor=none;align=left;verticalAlign=middle;spacingLeft=4;spacingRight=4;overflow=hidden;points=[[0,0.5],[1,0.5]];portConstraint=eastwest;rotatable=0;whiteSpace=wrap;html=1;fontSize=15;fontFamily=Helvetica;" vertex="1" parent="k9dNd58MIY_r8E8UFFgz-66">
          <mxGeometry y="50" width="180" height="30" as="geometry" />
        </mxCell>
        <mxCell id="k9dNd58MIY_r8E8UFFgz-68" value="format2" style="text;strokeColor=none;fillColor=none;align=left;verticalAlign=middle;spacingLeft=4;spacingRight=4;overflow=hidden;points=[[0,0.5],[1,0.5]];portConstraint=eastwest;rotatable=0;whiteSpace=wrap;html=1;fontSize=15;fontFamily=Helvetica;" vertex="1" parent="k9dNd58MIY_r8E8UFFgz-66">
          <mxGeometry y="80" width="180" height="30" as="geometry" />
        </mxCell>
        <mxCell id="k9dNd58MIY_r8E8UFFgz-69" value="format3" style="text;strokeColor=none;fillColor=none;align=left;verticalAlign=middle;spacingLeft=4;spacingRight=4;overflow=hidden;points=[[0,0.5],[1,0.5]];portConstraint=eastwest;rotatable=0;whiteSpace=wrap;html=1;fontSize=15;fontFamily=Helvetica;" vertex="1" parent="k9dNd58MIY_r8E8UFFgz-66">
          <mxGeometry y="110" width="180" height="30" as="geometry" />
        </mxCell>
        <mxCell id="k9dNd58MIY_r8E8UFFgz-70" value="format4" style="text;strokeColor=none;fillColor=none;align=left;verticalAlign=middle;spacingLeft=4;spacingRight=4;overflow=hidden;points=[[0,0.5],[1,0.5]];portConstraint=eastwest;rotatable=0;whiteSpace=wrap;html=1;fontSize=15;fontFamily=Helvetica;" vertex="1" parent="k9dNd58MIY_r8E8UFFgz-66">
          <mxGeometry y="140" width="180" height="30" as="geometry" />
        </mxCell>
        <mxCell id="k9dNd58MIY_r8E8UFFgz-71" value="ObjectCode" style="text;strokeColor=none;fillColor=none;align=left;verticalAlign=middle;spacingLeft=4;spacingRight=4;overflow=hidden;points=[[0,0.5],[1,0.5]];portConstraint=eastwest;rotatable=0;whiteSpace=wrap;html=1;fontSize=15;fontFamily=Helvetica;" vertex="1" parent="k9dNd58MIY_r8E8UFFgz-66">
          <mxGeometry y="170" width="180" height="30" as="geometry" />
        </mxCell>
        <mxCell id="k9dNd58MIY_r8E8UFFgz-72" value="parseOperand" style="text;strokeColor=none;fillColor=none;align=left;verticalAlign=middle;spacingLeft=4;spacingRight=4;overflow=hidden;points=[[0,0.5],[1,0.5]];portConstraint=eastwest;rotatable=0;whiteSpace=wrap;html=1;fontSize=15;fontFamily=Helvetica;" vertex="1" parent="k9dNd58MIY_r8E8UFFgz-66">
          <mxGeometry y="200" width="180" height="30" as="geometry" />
        </mxCell>
        <mxCell id="k9dNd58MIY_r8E8UFFgz-73" value="table" style="swimlane;fontStyle=0;childLayout=stackLayout;horizontal=1;startSize=30;horizontalStack=0;resizeParent=1;resizeParentMax=0;resizeLast=0;collapsible=1;marginBottom=0;whiteSpace=wrap;html=1;fontSize=15;fontFamily=Helvetica;" vertex="1" parent="1">
          <mxGeometry x="340" y="70" width="180" height="350" as="geometry" />
        </mxCell>
        <mxCell id="k9dNd58MIY_r8E8UFFgz-111" value="optable" style="text;strokeColor=none;fillColor=none;align=left;verticalAlign=middle;spacingLeft=4;spacingRight=4;overflow=hidden;points=[[0,0.5],[1,0.5]];portConstraint=eastwest;rotatable=0;whiteSpace=wrap;html=1;fontSize=15;fontFamily=Helvetica;" vertex="1" parent="k9dNd58MIY_r8E8UFFgz-73">
          <mxGeometry y="30" width="180" height="30" as="geometry" />
        </mxCell>
        <mxCell id="k9dNd58MIY_r8E8UFFgz-75" value="regtable" style="text;strokeColor=none;fillColor=none;align=left;verticalAlign=middle;spacingLeft=4;spacingRight=4;overflow=hidden;points=[[0,0.5],[1,0.5]];portConstraint=eastwest;rotatable=0;whiteSpace=wrap;html=1;fontSize=15;fontFamily=Helvetica;" vertex="1" parent="k9dNd58MIY_r8E8UFFgz-73">
          <mxGeometry y="60" width="180" height="30" as="geometry" />
        </mxCell>
        <mxCell id="k9dNd58MIY_r8E8UFFgz-76" value="symboltable" style="text;strokeColor=none;fillColor=none;align=left;verticalAlign=middle;spacingLeft=4;spacingRight=4;overflow=hidden;points=[[0,0.5],[1,0.5]];portConstraint=eastwest;rotatable=0;whiteSpace=wrap;html=1;fontSize=15;fontFamily=Helvetica;" vertex="1" parent="k9dNd58MIY_r8E8UFFgz-73">
          <mxGeometry y="90" width="180" height="30" as="geometry" />
        </mxCell>
        <mxCell id="k9dNd58MIY_r8E8UFFgz-77" value="literaltable" style="text;strokeColor=none;fillColor=none;align=left;verticalAlign=middle;spacingLeft=4;spacingRight=4;overflow=hidden;points=[[0,0.5],[1,0.5]];portConstraint=eastwest;rotatable=0;whiteSpace=wrap;html=1;fontSize=15;fontFamily=Helvetica;" vertex="1" parent="k9dNd58MIY_r8E8UFFgz-73">
          <mxGeometry y="120" width="180" height="30" as="geometry" />
        </mxCell>
        <mxCell id="k9dNd58MIY_r8E8UFFgz-78" value="directivetable" style="text;strokeColor=none;fillColor=none;align=left;verticalAlign=middle;spacingLeft=4;spacingRight=4;overflow=hidden;points=[[0,0.5],[1,0.5]];portConstraint=eastwest;rotatable=0;whiteSpace=wrap;html=1;fontSize=15;fontFamily=Helvetica;" vertex="1" parent="k9dNd58MIY_r8E8UFFgz-73">
          <mxGeometry y="150" width="180" height="30" as="geometry" />
        </mxCell>
        <mxCell id="k9dNd58MIY_r8E8UFFgz-85" value="Method" style="swimlane;fontSize=15;fontFamily=Helvetica;" vertex="1" parent="k9dNd58MIY_r8E8UFFgz-73">
          <mxGeometry y="180" width="180" height="170" as="geometry" />
        </mxCell>
        <mxCell id="k9dNd58MIY_r8E8UFFgz-86" value="buildOpTable" style="text;strokeColor=none;fillColor=none;align=left;verticalAlign=middle;spacingLeft=4;spacingRight=4;overflow=hidden;points=[[0,0.5],[1,0.5]];portConstraint=eastwest;rotatable=0;whiteSpace=wrap;html=1;fontSize=15;fontFamily=Helvetica;" vertex="1" parent="k9dNd58MIY_r8E8UFFgz-85">
          <mxGeometry y="20" width="180" height="30" as="geometry" />
        </mxCell>
        <mxCell id="k9dNd58MIY_r8E8UFFgz-87" value="buildRegTable" style="text;strokeColor=none;fillColor=none;align=left;verticalAlign=middle;spacingLeft=4;spacingRight=4;overflow=hidden;points=[[0,0.5],[1,0.5]];portConstraint=eastwest;rotatable=0;whiteSpace=wrap;html=1;fontSize=15;fontFamily=Helvetica;" vertex="1" parent="k9dNd58MIY_r8E8UFFgz-85">
          <mxGeometry y="50" width="180" height="30" as="geometry" />
        </mxCell>
        <mxCell id="k9dNd58MIY_r8E8UFFgz-88" value="buildDirectivetable" style="text;strokeColor=none;fillColor=none;align=left;verticalAlign=middle;spacingLeft=4;spacingRight=4;overflow=hidden;points=[[0,0.5],[1,0.5]];portConstraint=eastwest;rotatable=0;whiteSpace=wrap;html=1;fontSize=15;fontFamily=Helvetica;" vertex="1" parent="k9dNd58MIY_r8E8UFFgz-85">
          <mxGeometry y="80" width="180" height="30" as="geometry" />
        </mxCell>
        <mxCell id="k9dNd58MIY_r8E8UFFgz-89" value="addSymbol" style="text;strokeColor=none;fillColor=none;align=left;verticalAlign=middle;spacingLeft=4;spacingRight=4;overflow=hidden;points=[[0,0.5],[1,0.5]];portConstraint=eastwest;rotatable=0;whiteSpace=wrap;html=1;fontSize=15;fontFamily=Helvetica;" vertex="1" parent="k9dNd58MIY_r8E8UFFgz-85">
          <mxGeometry y="110" width="180" height="30" as="geometry" />
        </mxCell>
        <mxCell id="k9dNd58MIY_r8E8UFFgz-90" value="addLiteral" style="text;strokeColor=none;fillColor=none;align=left;verticalAlign=middle;spacingLeft=4;spacingRight=4;overflow=hidden;points=[[0,0.5],[1,0.5]];portConstraint=eastwest;rotatable=0;whiteSpace=wrap;html=1;fontSize=15;fontFamily=Helvetica;" vertex="1" parent="k9dNd58MIY_r8E8UFFgz-85">
          <mxGeometry y="140" width="180" height="30" as="geometry" />
        </mxCell>
        <mxCell id="k9dNd58MIY_r8E8UFFgz-93" value="util" style="swimlane;fontStyle=0;childLayout=stackLayout;horizontal=1;startSize=30;horizontalStack=0;resizeParent=1;resizeParentMax=0;resizeLast=0;collapsible=1;marginBottom=0;whiteSpace=wrap;html=1;fontSize=15;fontFamily=Helvetica;" vertex="1" parent="1">
          <mxGeometry x="340" y="460" width="180" height="260" as="geometry" />
        </mxCell>
        <mxCell id="k9dNd58MIY_r8E8UFFgz-99" value="Method" style="swimlane;fontSize=15;fontFamily=Helvetica;" vertex="1" parent="k9dNd58MIY_r8E8UFFgz-93">
          <mxGeometry y="30" width="180" height="230" as="geometry" />
        </mxCell>
        <mxCell id="k9dNd58MIY_r8E8UFFgz-100" value="printFile" style="text;strokeColor=none;fillColor=none;align=left;verticalAlign=middle;spacingLeft=4;spacingRight=4;overflow=hidden;points=[[0,0.5],[1,0.5]];portConstraint=eastwest;rotatable=0;whiteSpace=wrap;html=1;fontSize=15;fontFamily=Helvetica;" vertex="1" parent="k9dNd58MIY_r8E8UFFgz-99">
          <mxGeometry y="20" width="180" height="30" as="geometry" />
        </mxCell>
        <mxCell id="k9dNd58MIY_r8E8UFFgz-101" value="getOption" style="text;strokeColor=none;fillColor=none;align=left;verticalAlign=middle;spacingLeft=4;spacingRight=4;overflow=hidden;points=[[0,0.5],[1,0.5]];portConstraint=eastwest;rotatable=0;whiteSpace=wrap;html=1;fontSize=15;fontFamily=Helvetica;" vertex="1" parent="k9dNd58MIY_r8E8UFFgz-99">
          <mxGeometry y="50" width="180" height="30" as="geometry" />
        </mxCell>
        <mxCell id="k9dNd58MIY_r8E8UFFgz-102" value="isDecimal" style="text;strokeColor=none;fillColor=none;align=left;verticalAlign=middle;spacingLeft=4;spacingRight=4;overflow=hidden;points=[[0,0.5],[1,0.5]];portConstraint=eastwest;rotatable=0;whiteSpace=wrap;html=1;fontSize=15;fontFamily=Helvetica;" vertex="1" parent="k9dNd58MIY_r8E8UFFgz-99">
          <mxGeometry y="80" width="180" height="30" as="geometry" />
        </mxCell>
        <mxCell id="k9dNd58MIY_r8E8UFFgz-103" value="isHexadecimal" style="text;strokeColor=none;fillColor=none;align=left;verticalAlign=middle;spacingLeft=4;spacingRight=4;overflow=hidden;points=[[0,0.5],[1,0.5]];portConstraint=eastwest;rotatable=0;whiteSpace=wrap;html=1;fontSize=15;fontFamily=Helvetica;" vertex="1" parent="k9dNd58MIY_r8E8UFFgz-99">
          <mxGeometry y="110" width="180" height="30" as="geometry" />
        </mxCell>
        <mxCell id="k9dNd58MIY_r8E8UFFgz-104" value="isNumber" style="text;strokeColor=none;fillColor=none;align=left;verticalAlign=middle;spacingLeft=4;spacingRight=4;overflow=hidden;points=[[0,0.5],[1,0.5]];portConstraint=eastwest;rotatable=0;whiteSpace=wrap;html=1;fontSize=15;fontFamily=Helvetica;" vertex="1" parent="k9dNd58MIY_r8E8UFFgz-99">
          <mxGeometry y="140" width="180" height="30" as="geometry" />
        </mxCell>
        <mxCell id="k9dNd58MIY_r8E8UFFgz-105" value="sethex" style="text;strokeColor=none;fillColor=none;align=left;verticalAlign=middle;spacingLeft=4;spacingRight=4;overflow=hidden;points=[[0,0.5],[1,0.5]];portConstraint=eastwest;rotatable=0;whiteSpace=wrap;html=1;fontSize=15;fontFamily=Helvetica;" vertex="1" parent="k9dNd58MIY_r8E8UFFgz-99">
          <mxGeometry y="170" width="180" height="30" as="geometry" />
        </mxCell>
        <mxCell id="k9dNd58MIY_r8E8UFFgz-106" value="setdec" style="text;strokeColor=none;fillColor=none;align=left;verticalAlign=middle;spacingLeft=4;spacingRight=4;overflow=hidden;points=[[0,0.5],[1,0.5]];portConstraint=eastwest;rotatable=0;whiteSpace=wrap;html=1;fontSize=15;fontFamily=Helvetica;" vertex="1" parent="k9dNd58MIY_r8E8UFFgz-99">
          <mxGeometry y="200" width="180" height="30" as="geometry" />
        </mxCell>
        <mxCell id="k9dNd58MIY_r8E8UFFgz-107" value="main" style="swimlane;fontStyle=0;childLayout=stackLayout;horizontal=1;startSize=26;horizontalStack=0;resizeParent=1;resizeParentMax=0;resizeLast=0;collapsible=1;marginBottom=0;align=center;fontSize=15;fontFamily=Helvetica;" vertex="1" parent="1">
          <mxGeometry x="620" y="310" width="160" height="240" as="geometry" />
        </mxCell>
        <mxCell id="k9dNd58MIY_r8E8UFFgz-109" value="MODE" style="text;strokeColor=none;fillColor=none;spacingLeft=4;spacingRight=4;overflow=hidden;rotatable=0;points=[[0,0.5],[1,0.5]];portConstraint=eastwest;fontSize=15;whiteSpace=wrap;html=1;fontFamily=Helvetica;" vertex="1" parent="k9dNd58MIY_r8E8UFFgz-107">
          <mxGeometry y="26" width="160" height="30" as="geometry" />
        </mxCell>
        <mxCell id="k9dNd58MIY_r8E8UFFgz-112" value="Method" style="swimlane;fontSize=15;fontFamily=Helvetica;" vertex="1" parent="k9dNd58MIY_r8E8UFFgz-107">
          <mxGeometry y="56" width="160" height="184" as="geometry" />
        </mxCell>
        <mxCell id="k9dNd58MIY_r8E8UFFgz-113" value="parseLine" style="text;strokeColor=none;fillColor=none;align=left;verticalAlign=middle;spacingLeft=4;spacingRight=4;overflow=hidden;points=[[0,0.5],[1,0.5]];portConstraint=eastwest;rotatable=0;whiteSpace=wrap;html=1;fontSize=15;fontFamily=Helvetica;" vertex="1" parent="k9dNd58MIY_r8E8UFFgz-112">
          <mxGeometry y="20" width="180" height="30" as="geometry" />
        </mxCell>
        <mxCell id="k9dNd58MIY_r8E8UFFgz-114" value="printLine" style="text;strokeColor=none;fillColor=none;align=left;verticalAlign=middle;spacingLeft=4;spacingRight=4;overflow=hidden;points=[[0,0.5],[1,0.5]];portConstraint=eastwest;rotatable=0;whiteSpace=wrap;html=1;fontSize=15;fontFamily=Helvetica;" vertex="1" parent="k9dNd58MIY_r8E8UFFgz-112">
          <mxGeometry y="50" width="180" height="30" as="geometry" />
        </mxCell>
        <mxCell id="k9dNd58MIY_r8E8UFFgz-115" value="pass1" style="text;strokeColor=none;fillColor=none;align=left;verticalAlign=middle;spacingLeft=4;spacingRight=4;overflow=hidden;points=[[0,0.5],[1,0.5]];portConstraint=eastwest;rotatable=0;whiteSpace=wrap;html=1;fontSize=15;fontFamily=Helvetica;" vertex="1" parent="k9dNd58MIY_r8E8UFFgz-112">
          <mxGeometry y="80" width="180" height="30" as="geometry" />
        </mxCell>
        <mxCell id="k9dNd58MIY_r8E8UFFgz-116" value="pass2" style="text;strokeColor=none;fillColor=none;align=left;verticalAlign=middle;spacingLeft=4;spacingRight=4;overflow=hidden;points=[[0,0.5],[1,0.5]];portConstraint=eastwest;rotatable=0;whiteSpace=wrap;html=1;fontSize=15;fontFamily=Helvetica;" vertex="1" parent="k9dNd58MIY_r8E8UFFgz-112">
          <mxGeometry y="110" width="180" height="30" as="geometry" />
        </mxCell>
        <mxCell id="k9dNd58MIY_r8E8UFFgz-117" value="main" style="text;strokeColor=none;fillColor=none;align=left;verticalAlign=middle;spacingLeft=4;spacingRight=4;overflow=hidden;points=[[0,0.5],[1,0.5]];portConstraint=eastwest;rotatable=0;whiteSpace=wrap;html=1;fontSize=15;fontFamily=Helvetica;" vertex="1" parent="k9dNd58MIY_r8E8UFFgz-112">
          <mxGeometry y="140" width="180" height="30" as="geometry" />
        </mxCell>
        <mxCell id="k9dNd58MIY_r8E8UFFgz-120" value="result" style="swimlane;fontStyle=0;childLayout=stackLayout;horizontal=1;startSize=26;horizontalStack=0;resizeParent=1;resizeParentMax=0;resizeLast=0;collapsible=1;marginBottom=0;align=center;fontSize=15;fontFamily=Helvetica;" vertex="1" parent="1">
          <mxGeometry x="850" y="402" width="160" height="56" as="geometry" />
        </mxCell>
        <mxCell id="k9dNd58MIY_r8E8UFFgz-121" value="output.txt" style="text;strokeColor=none;fillColor=none;spacingLeft=4;spacingRight=4;overflow=hidden;rotatable=0;points=[[0,0.5],[1,0.5]];portConstraint=eastwest;fontSize=15;whiteSpace=wrap;html=1;fontFamily=Helvetica;" vertex="1" parent="k9dNd58MIY_r8E8UFFgz-120">
          <mxGeometry y="26" width="160" height="30" as="geometry" />
        </mxCell>
        <mxCell id="k9dNd58MIY_r8E8UFFgz-128" value="" style="endArrow=classic;html=1;rounded=0;fontSize=15;" edge="1" parent="1" source="k9dNd58MIY_r8E8UFFgz-73" target="k9dNd58MIY_r8E8UFFgz-107">
          <mxGeometry width="50" height="50" relative="1" as="geometry">
            <mxPoint x="530" y="460" as="sourcePoint" />
            <mxPoint x="580" y="410" as="targetPoint" />
          </mxGeometry>
        </mxCell>
        <mxCell id="k9dNd58MIY_r8E8UFFgz-129" value="" style="endArrow=classic;html=1;rounded=0;fontSize=15;" edge="1" parent="1" source="k9dNd58MIY_r8E8UFFgz-93" target="k9dNd58MIY_r8E8UFFgz-107">
          <mxGeometry width="50" height="50" relative="1" as="geometry">
            <mxPoint x="480" y="470" as="sourcePoint" />
            <mxPoint x="530" y="420" as="targetPoint" />
          </mxGeometry>
        </mxCell>
        <mxCell id="k9dNd58MIY_r8E8UFFgz-130" value="" style="endArrow=classic;html=1;rounded=0;fontSize=15;" edge="1" parent="1" source="k9dNd58MIY_r8E8UFFgz-22" target="k9dNd58MIY_r8E8UFFgz-107">
          <mxGeometry width="50" height="50" relative="1" as="geometry">
            <mxPoint x="400" y="420" as="sourcePoint" />
            <mxPoint x="450" y="370" as="targetPoint" />
          </mxGeometry>
        </mxCell>
        <mxCell id="k9dNd58MIY_r8E8UFFgz-131" value="" style="endArrow=classic;html=1;rounded=0;fontSize=15;" edge="1" parent="1" source="k9dNd58MIY_r8E8UFFgz-107" target="k9dNd58MIY_r8E8UFFgz-120">
          <mxGeometry width="50" height="50" relative="1" as="geometry">
            <mxPoint x="770" y="330" as="sourcePoint" />
            <mxPoint x="870" y="530" as="targetPoint" />
          </mxGeometry>
        </mxCell>
        <mxCell id="P8uOvkB5zgrIb_2KGSgW-15" style="edgeStyle=orthogonalEdgeStyle;rounded=0;orthogonalLoop=1;jettySize=auto;html=1;exitX=1;exitY=0.5;exitDx=0;exitDy=0;exitPerimeter=0;entryX=0;entryY=0.5;entryDx=0;entryDy=0;" edge="1" parent="1" source="P8uOvkB5zgrIb_2KGSgW-1" target="P8uOvkB5zgrIb_2KGSgW-2">
          <mxGeometry relative="1" as="geometry" />
        </mxCell>
        <mxCell id="P8uOvkB5zgrIb_2KGSgW-1" value="start" style="html=1;dashed=0;whiteSpace=wrap;shape=mxgraph.dfd.start;fontSize=15;" vertex="1" parent="1">
          <mxGeometry x="60" y="1100" width="100" height="40" as="geometry" />
        </mxCell>
        <mxCell id="P8uOvkB5zgrIb_2KGSgW-17" style="edgeStyle=orthogonalEdgeStyle;rounded=0;orthogonalLoop=1;jettySize=auto;html=1;exitX=1;exitY=0.5;exitDx=0;exitDy=0;entryX=0;entryY=0.5;entryDx=0;entryDy=0;" edge="1" parent="1" source="P8uOvkB5zgrIb_2KGSgW-2" target="P8uOvkB5zgrIb_2KGSgW-3">
          <mxGeometry relative="1" as="geometry" />
        </mxCell>
        <mxCell id="P8uOvkB5zgrIb_2KGSgW-2" value="&lt;br&gt;getOption" style="html=1;strokeWidth=2;shape=manualInput;whiteSpace=wrap;rounded=1;size=26;arcSize=11;fontSize=15;" vertex="1" parent="1">
          <mxGeometry x="200" y="1090" width="90" height="60" as="geometry" />
        </mxCell>
        <mxCell id="P8uOvkB5zgrIb_2KGSgW-3" value="Pass1" style="swimlane;whiteSpace=wrap;html=1;" vertex="1" parent="1">
          <mxGeometry x="390" y="850" width="590" height="780" as="geometry" />
        </mxCell>
        <mxCell id="P8uOvkB5zgrIb_2KGSgW-13" value="Read File" style="shape=document;whiteSpace=wrap;html=1;boundedLbl=1;" vertex="1" parent="P8uOvkB5zgrIb_2KGSgW-3">
          <mxGeometry x="251" y="50" width="120" height="60" as="geometry" />
        </mxCell>
        <mxCell id="P8uOvkB5zgrIb_2KGSgW-25" style="edgeStyle=orthogonalEdgeStyle;rounded=0;orthogonalLoop=1;jettySize=auto;html=1;exitX=0.5;exitY=1;exitDx=0;exitDy=0;entryX=0.5;entryY=0;entryDx=0;entryDy=0;" edge="1" parent="P8uOvkB5zgrIb_2KGSgW-3" source="P8uOvkB5zgrIb_2KGSgW-14" target="P8uOvkB5zgrIb_2KGSgW-23">
          <mxGeometry relative="1" as="geometry" />
        </mxCell>
        <mxCell id="P8uOvkB5zgrIb_2KGSgW-27" value="No" style="edgeLabel;html=1;align=center;verticalAlign=middle;resizable=0;points=[];" connectable="0" vertex="1" parent="P8uOvkB5zgrIb_2KGSgW-25">
          <mxGeometry x="-0.4" relative="1" as="geometry">
            <mxPoint as="offset" />
          </mxGeometry>
        </mxCell>
        <mxCell id="P8uOvkB5zgrIb_2KGSgW-14" value="Is End Of File ?" style="rhombus;whiteSpace=wrap;html=1;" vertex="1" parent="P8uOvkB5zgrIb_2KGSgW-3">
          <mxGeometry x="254.75" y="120" width="112.5" height="60" as="geometry" />
        </mxCell>
        <mxCell id="P8uOvkB5zgrIb_2KGSgW-20" value="" style="endArrow=classic;html=1;rounded=0;exitX=0.5;exitY=0.85;exitDx=0;exitDy=0;exitPerimeter=0;entryX=0.5;entryY=0;entryDx=0;entryDy=0;" edge="1" parent="P8uOvkB5zgrIb_2KGSgW-3" source="P8uOvkB5zgrIb_2KGSgW-13" target="P8uOvkB5zgrIb_2KGSgW-14">
          <mxGeometry width="50" height="50" relative="1" as="geometry">
            <mxPoint x="268" y="300" as="sourcePoint" />
            <mxPoint x="318" y="250" as="targetPoint" />
          </mxGeometry>
        </mxCell>
        <mxCell id="P8uOvkB5zgrIb_2KGSgW-29" style="edgeStyle=orthogonalEdgeStyle;rounded=0;orthogonalLoop=1;jettySize=auto;html=1;exitX=0.5;exitY=1;exitDx=0;exitDy=0;entryX=0.5;entryY=0;entryDx=0;entryDy=0;" edge="1" parent="P8uOvkB5zgrIb_2KGSgW-3" source="P8uOvkB5zgrIb_2KGSgW-21" target="P8uOvkB5zgrIb_2KGSgW-22">
          <mxGeometry relative="1" as="geometry" />
        </mxCell>
        <mxCell id="P8uOvkB5zgrIb_2KGSgW-21" value="parseLine" style="rounded=1;whiteSpace=wrap;html=1;" vertex="1" parent="P8uOvkB5zgrIb_2KGSgW-3">
          <mxGeometry x="250.5" y="310" width="120" height="40" as="geometry" />
        </mxCell>
        <mxCell id="P8uOvkB5zgrIb_2KGSgW-32" style="edgeStyle=orthogonalEdgeStyle;rounded=0;orthogonalLoop=1;jettySize=auto;html=1;exitX=0.5;exitY=1;exitDx=0;exitDy=0;" edge="1" parent="P8uOvkB5zgrIb_2KGSgW-3" source="P8uOvkB5zgrIb_2KGSgW-22" target="P8uOvkB5zgrIb_2KGSgW-31">
          <mxGeometry relative="1" as="geometry" />
        </mxCell>
        <mxCell id="P8uOvkB5zgrIb_2KGSgW-69" value="Yes" style="edgeLabel;html=1;align=center;verticalAlign=middle;resizable=0;points=[];" connectable="0" vertex="1" parent="P8uOvkB5zgrIb_2KGSgW-32">
          <mxGeometry x="-0.1333" y="2" relative="1" as="geometry">
            <mxPoint as="offset" />
          </mxGeometry>
        </mxCell>
        <mxCell id="P8uOvkB5zgrIb_2KGSgW-33" style="edgeStyle=orthogonalEdgeStyle;rounded=0;orthogonalLoop=1;jettySize=auto;html=1;exitX=0;exitY=0.5;exitDx=0;exitDy=0;entryX=0;entryY=0.5;entryDx=0;entryDy=0;" edge="1" parent="P8uOvkB5zgrIb_2KGSgW-3" source="P8uOvkB5zgrIb_2KGSgW-22" target="P8uOvkB5zgrIb_2KGSgW-13">
          <mxGeometry relative="1" as="geometry" />
        </mxCell>
        <mxCell id="P8uOvkB5zgrIb_2KGSgW-35" value="No" style="edgeLabel;html=1;align=center;verticalAlign=middle;resizable=0;points=[];" connectable="0" vertex="1" parent="P8uOvkB5zgrIb_2KGSgW-33">
          <mxGeometry x="-0.5395" y="1" relative="1" as="geometry">
            <mxPoint as="offset" />
          </mxGeometry>
        </mxCell>
        <mxCell id="P8uOvkB5zgrIb_2KGSgW-22" value="Has Label?" style="rhombus;whiteSpace=wrap;html=1;" vertex="1" parent="P8uOvkB5zgrIb_2KGSgW-3">
          <mxGeometry x="254.75" y="370" width="112.5" height="60" as="geometry" />
        </mxCell>
        <mxCell id="P8uOvkB5zgrIb_2KGSgW-24" style="edgeStyle=orthogonalEdgeStyle;rounded=0;orthogonalLoop=1;jettySize=auto;html=1;exitX=1;exitY=0.5;exitDx=0;exitDy=0;entryX=1;entryY=0.5;entryDx=0;entryDy=0;" edge="1" parent="P8uOvkB5zgrIb_2KGSgW-3" source="P8uOvkB5zgrIb_2KGSgW-23" target="P8uOvkB5zgrIb_2KGSgW-13">
          <mxGeometry relative="1" as="geometry" />
        </mxCell>
        <mxCell id="P8uOvkB5zgrIb_2KGSgW-28" value="Yes" style="edgeLabel;html=1;align=center;verticalAlign=middle;resizable=0;points=[];" connectable="0" vertex="1" parent="P8uOvkB5zgrIb_2KGSgW-24">
          <mxGeometry x="0.0472" y="-1" relative="1" as="geometry">
            <mxPoint as="offset" />
          </mxGeometry>
        </mxCell>
        <mxCell id="P8uOvkB5zgrIb_2KGSgW-26" value="No" style="edgeStyle=orthogonalEdgeStyle;rounded=0;orthogonalLoop=1;jettySize=auto;html=1;exitX=0.5;exitY=1;exitDx=0;exitDy=0;entryX=0.5;entryY=0;entryDx=0;entryDy=0;" edge="1" parent="P8uOvkB5zgrIb_2KGSgW-3" source="P8uOvkB5zgrIb_2KGSgW-23" target="P8uOvkB5zgrIb_2KGSgW-21">
          <mxGeometry relative="1" as="geometry" />
        </mxCell>
        <mxCell id="P8uOvkB5zgrIb_2KGSgW-23" value="Is Comment?" style="rhombus;whiteSpace=wrap;html=1;" vertex="1" parent="P8uOvkB5zgrIb_2KGSgW-3">
          <mxGeometry x="254.75" y="220" width="112.5" height="60" as="geometry" />
        </mxCell>
        <mxCell id="P8uOvkB5zgrIb_2KGSgW-71" style="edgeStyle=orthogonalEdgeStyle;rounded=0;orthogonalLoop=1;jettySize=auto;html=1;exitX=0.5;exitY=1;exitDx=0;exitDy=0;entryX=0.5;entryY=0;entryDx=0;entryDy=0;" edge="1" parent="P8uOvkB5zgrIb_2KGSgW-3" source="P8uOvkB5zgrIb_2KGSgW-31" target="P8uOvkB5zgrIb_2KGSgW-70">
          <mxGeometry relative="1" as="geometry" />
        </mxCell>
        <mxCell id="P8uOvkB5zgrIb_2KGSgW-31" value="addSymbol" style="rounded=1;whiteSpace=wrap;html=1;" vertex="1" parent="P8uOvkB5zgrIb_2KGSgW-3">
          <mxGeometry x="251" y="470" width="120" height="40" as="geometry" />
        </mxCell>
        <mxCell id="P8uOvkB5zgrIb_2KGSgW-74" value="No" style="edgeStyle=orthogonalEdgeStyle;rounded=0;orthogonalLoop=1;jettySize=auto;html=1;exitX=0.5;exitY=1;exitDx=0;exitDy=0;entryX=0.5;entryY=0;entryDx=0;entryDy=0;" edge="1" parent="P8uOvkB5zgrIb_2KGSgW-3" source="P8uOvkB5zgrIb_2KGSgW-70" target="P8uOvkB5zgrIb_2KGSgW-73">
          <mxGeometry relative="1" as="geometry" />
        </mxCell>
        <mxCell id="P8uOvkB5zgrIb_2KGSgW-75" value="Yes" style="edgeStyle=orthogonalEdgeStyle;rounded=0;orthogonalLoop=1;jettySize=auto;html=1;exitX=0;exitY=0.5;exitDx=0;exitDy=0;entryX=1;entryY=0.5;entryDx=0;entryDy=0;" edge="1" parent="P8uOvkB5zgrIb_2KGSgW-3" source="P8uOvkB5zgrIb_2KGSgW-70" target="P8uOvkB5zgrIb_2KGSgW-72">
          <mxGeometry relative="1" as="geometry" />
        </mxCell>
        <mxCell id="P8uOvkB5zgrIb_2KGSgW-70" value="Has Literal?" style="rhombus;whiteSpace=wrap;html=1;" vertex="1" parent="P8uOvkB5zgrIb_2KGSgW-3">
          <mxGeometry x="254.25" y="530" width="112.5" height="60" as="geometry" />
        </mxCell>
        <mxCell id="P8uOvkB5zgrIb_2KGSgW-76" style="edgeStyle=orthogonalEdgeStyle;rounded=0;orthogonalLoop=1;jettySize=auto;html=1;exitX=0.5;exitY=1;exitDx=0;exitDy=0;entryX=0;entryY=0.5;entryDx=0;entryDy=0;" edge="1" parent="P8uOvkB5zgrIb_2KGSgW-3" source="P8uOvkB5zgrIb_2KGSgW-72" target="P8uOvkB5zgrIb_2KGSgW-73">
          <mxGeometry relative="1" as="geometry" />
        </mxCell>
        <mxCell id="P8uOvkB5zgrIb_2KGSgW-72" value="add literal to buffer" style="rounded=1;whiteSpace=wrap;html=1;" vertex="1" parent="P8uOvkB5zgrIb_2KGSgW-3">
          <mxGeometry x="75" y="540" width="120" height="40" as="geometry" />
        </mxCell>
        <mxCell id="P8uOvkB5zgrIb_2KGSgW-78" value="Yes" style="edgeStyle=orthogonalEdgeStyle;rounded=0;orthogonalLoop=1;jettySize=auto;html=1;exitX=1;exitY=0.5;exitDx=0;exitDy=0;entryX=0;entryY=0.5;entryDx=0;entryDy=0;" edge="1" parent="P8uOvkB5zgrIb_2KGSgW-3" source="P8uOvkB5zgrIb_2KGSgW-73" target="P8uOvkB5zgrIb_2KGSgW-77">
          <mxGeometry relative="1" as="geometry" />
        </mxCell>
        <mxCell id="P8uOvkB5zgrIb_2KGSgW-79" style="edgeStyle=orthogonalEdgeStyle;rounded=0;orthogonalLoop=1;jettySize=auto;html=1;exitX=0.5;exitY=1;exitDx=0;exitDy=0;entryX=0;entryY=0.25;entryDx=0;entryDy=0;" edge="1" parent="P8uOvkB5zgrIb_2KGSgW-3" source="P8uOvkB5zgrIb_2KGSgW-73" target="P8uOvkB5zgrIb_2KGSgW-13">
          <mxGeometry relative="1" as="geometry">
            <mxPoint x="60" y="420" as="targetPoint" />
            <Array as="points">
              <mxPoint x="311" y="710" />
              <mxPoint x="60" y="710" />
              <mxPoint x="60" y="65" />
            </Array>
          </mxGeometry>
        </mxCell>
        <mxCell id="P8uOvkB5zgrIb_2KGSgW-82" value="No" style="edgeLabel;html=1;align=center;verticalAlign=middle;resizable=0;points=[];" connectable="0" vertex="1" parent="P8uOvkB5zgrIb_2KGSgW-79">
          <mxGeometry x="-0.7633" y="3" relative="1" as="geometry">
            <mxPoint x="1" as="offset" />
          </mxGeometry>
        </mxCell>
        <mxCell id="P8uOvkB5zgrIb_2KGSgW-73" value="Is END or LTORG?" style="rhombus;whiteSpace=wrap;html=1;" vertex="1" parent="P8uOvkB5zgrIb_2KGSgW-3">
          <mxGeometry x="236.63" y="620" width="148.75" height="70" as="geometry" />
        </mxCell>
        <mxCell id="P8uOvkB5zgrIb_2KGSgW-81" style="edgeStyle=orthogonalEdgeStyle;rounded=0;orthogonalLoop=1;jettySize=auto;html=1;exitX=0.5;exitY=0;exitDx=0;exitDy=0;entryX=1;entryY=0.25;entryDx=0;entryDy=0;" edge="1" parent="P8uOvkB5zgrIb_2KGSgW-3" source="P8uOvkB5zgrIb_2KGSgW-77" target="P8uOvkB5zgrIb_2KGSgW-13">
          <mxGeometry relative="1" as="geometry" />
        </mxCell>
        <mxCell id="P8uOvkB5zgrIb_2KGSgW-77" value="add buffer to literal table" style="rounded=1;whiteSpace=wrap;html=1;" vertex="1" parent="P8uOvkB5zgrIb_2KGSgW-3">
          <mxGeometry x="420" y="635" width="150" height="40" as="geometry" />
        </mxCell>
        <mxCell id="P8uOvkB5zgrIb_2KGSgW-37" value="Pass1" style="swimlane;whiteSpace=wrap;html=1;" vertex="1" parent="1">
          <mxGeometry x="1050" y="850" width="415" height="600" as="geometry" />
        </mxCell>
        <mxCell id="P8uOvkB5zgrIb_2KGSgW-38" value="Read File" style="shape=document;whiteSpace=wrap;html=1;boundedLbl=1;" vertex="1" parent="P8uOvkB5zgrIb_2KGSgW-37">
          <mxGeometry x="148" y="40" width="120" height="60" as="geometry" />
        </mxCell>
        <mxCell id="P8uOvkB5zgrIb_2KGSgW-39" style="edgeStyle=orthogonalEdgeStyle;rounded=0;orthogonalLoop=1;jettySize=auto;html=1;exitX=0.5;exitY=1;exitDx=0;exitDy=0;entryX=0.5;entryY=0;entryDx=0;entryDy=0;" edge="1" parent="P8uOvkB5zgrIb_2KGSgW-37" source="P8uOvkB5zgrIb_2KGSgW-41" target="P8uOvkB5zgrIb_2KGSgW-53">
          <mxGeometry relative="1" as="geometry" />
        </mxCell>
        <mxCell id="P8uOvkB5zgrIb_2KGSgW-40" value="No" style="edgeLabel;html=1;align=center;verticalAlign=middle;resizable=0;points=[];" connectable="0" vertex="1" parent="P8uOvkB5zgrIb_2KGSgW-39">
          <mxGeometry x="-0.4" relative="1" as="geometry">
            <mxPoint as="offset" />
          </mxGeometry>
        </mxCell>
        <mxCell id="P8uOvkB5zgrIb_2KGSgW-41" value="Is End Of File ?" style="rhombus;whiteSpace=wrap;html=1;" vertex="1" parent="P8uOvkB5zgrIb_2KGSgW-37">
          <mxGeometry x="151.75" y="110" width="112.5" height="60" as="geometry" />
        </mxCell>
        <mxCell id="P8uOvkB5zgrIb_2KGSgW-42" value="" style="endArrow=classic;html=1;rounded=0;exitX=0.5;exitY=0.85;exitDx=0;exitDy=0;exitPerimeter=0;entryX=0.5;entryY=0;entryDx=0;entryDy=0;" edge="1" parent="P8uOvkB5zgrIb_2KGSgW-37" source="P8uOvkB5zgrIb_2KGSgW-38" target="P8uOvkB5zgrIb_2KGSgW-41">
          <mxGeometry width="50" height="50" relative="1" as="geometry">
            <mxPoint x="165" y="290" as="sourcePoint" />
            <mxPoint x="215" y="240" as="targetPoint" />
          </mxGeometry>
        </mxCell>
        <mxCell id="P8uOvkB5zgrIb_2KGSgW-43" style="edgeStyle=orthogonalEdgeStyle;rounded=0;orthogonalLoop=1;jettySize=auto;html=1;exitX=0.5;exitY=1;exitDx=0;exitDy=0;entryX=0.5;entryY=0;entryDx=0;entryDy=0;" edge="1" parent="P8uOvkB5zgrIb_2KGSgW-37" source="P8uOvkB5zgrIb_2KGSgW-44" target="P8uOvkB5zgrIb_2KGSgW-55">
          <mxGeometry relative="1" as="geometry">
            <mxPoint x="208.0050000000001" y="356" as="targetPoint" />
          </mxGeometry>
        </mxCell>
        <mxCell id="P8uOvkB5zgrIb_2KGSgW-44" value="parseLine" style="rounded=1;whiteSpace=wrap;html=1;" vertex="1" parent="P8uOvkB5zgrIb_2KGSgW-37">
          <mxGeometry x="147.5" y="300" width="120" height="40" as="geometry" />
        </mxCell>
        <mxCell id="P8uOvkB5zgrIb_2KGSgW-52" value="No" style="edgeStyle=orthogonalEdgeStyle;rounded=0;orthogonalLoop=1;jettySize=auto;html=1;exitX=0.5;exitY=1;exitDx=0;exitDy=0;entryX=0.5;entryY=0;entryDx=0;entryDy=0;" edge="1" parent="P8uOvkB5zgrIb_2KGSgW-37" source="P8uOvkB5zgrIb_2KGSgW-53" target="P8uOvkB5zgrIb_2KGSgW-44">
          <mxGeometry relative="1" as="geometry" />
        </mxCell>
        <mxCell id="P8uOvkB5zgrIb_2KGSgW-63" value="Yes" style="edgeStyle=orthogonalEdgeStyle;rounded=0;orthogonalLoop=1;jettySize=auto;html=1;exitX=1;exitY=0.5;exitDx=0;exitDy=0;entryX=1;entryY=0.5;entryDx=0;entryDy=0;" edge="1" parent="P8uOvkB5zgrIb_2KGSgW-37" source="P8uOvkB5zgrIb_2KGSgW-53" target="P8uOvkB5zgrIb_2KGSgW-55">
          <mxGeometry relative="1" as="geometry">
            <Array as="points">
              <mxPoint x="360" y="240" />
              <mxPoint x="360" y="391" />
            </Array>
          </mxGeometry>
        </mxCell>
        <mxCell id="P8uOvkB5zgrIb_2KGSgW-53" value="Is Comment?" style="rhombus;whiteSpace=wrap;html=1;" vertex="1" parent="P8uOvkB5zgrIb_2KGSgW-37">
          <mxGeometry x="151.75" y="210" width="112.5" height="60" as="geometry" />
        </mxCell>
        <mxCell id="P8uOvkB5zgrIb_2KGSgW-60" style="edgeStyle=orthogonalEdgeStyle;rounded=0;orthogonalLoop=1;jettySize=auto;html=1;exitX=0.5;exitY=1;exitDx=0;exitDy=0;entryX=0.5;entryY=0;entryDx=0;entryDy=0;" edge="1" parent="P8uOvkB5zgrIb_2KGSgW-37" source="P8uOvkB5zgrIb_2KGSgW-55" target="P8uOvkB5zgrIb_2KGSgW-59">
          <mxGeometry relative="1" as="geometry" />
        </mxCell>
        <mxCell id="P8uOvkB5zgrIb_2KGSgW-55" value="save result to output file" style="rounded=1;whiteSpace=wrap;html=1;" vertex="1" parent="P8uOvkB5zgrIb_2KGSgW-37">
          <mxGeometry x="132" y="370.5" width="152" height="40" as="geometry" />
        </mxCell>
        <mxCell id="P8uOvkB5zgrIb_2KGSgW-61" style="edgeStyle=orthogonalEdgeStyle;rounded=0;orthogonalLoop=1;jettySize=auto;html=1;exitX=0;exitY=0.5;exitDx=0;exitDy=0;entryX=0;entryY=0.5;entryDx=0;entryDy=0;" edge="1" parent="P8uOvkB5zgrIb_2KGSgW-37" source="P8uOvkB5zgrIb_2KGSgW-59" target="P8uOvkB5zgrIb_2KGSgW-38">
          <mxGeometry relative="1" as="geometry">
            <Array as="points">
              <mxPoint x="90" y="475" />
              <mxPoint x="90" y="70" />
            </Array>
          </mxGeometry>
        </mxCell>
        <mxCell id="P8uOvkB5zgrIb_2KGSgW-64" value="No" style="edgeLabel;html=1;align=center;verticalAlign=middle;resizable=0;points=[];" connectable="0" vertex="1" parent="P8uOvkB5zgrIb_2KGSgW-61">
          <mxGeometry x="-0.1327" y="1" relative="1" as="geometry">
            <mxPoint as="offset" />
          </mxGeometry>
        </mxCell>
        <mxCell id="P8uOvkB5zgrIb_2KGSgW-66" value="Yes" style="edgeStyle=orthogonalEdgeStyle;rounded=0;orthogonalLoop=1;jettySize=auto;html=1;exitX=0.5;exitY=1;exitDx=0;exitDy=0;entryX=0.5;entryY=0;entryDx=0;entryDy=0;" edge="1" parent="P8uOvkB5zgrIb_2KGSgW-37" source="P8uOvkB5zgrIb_2KGSgW-59" target="P8uOvkB5zgrIb_2KGSgW-65">
          <mxGeometry relative="1" as="geometry" />
        </mxCell>
        <mxCell id="P8uOvkB5zgrIb_2KGSgW-59" value="Is END or LTORG?" style="rhombus;whiteSpace=wrap;html=1;" vertex="1" parent="P8uOvkB5zgrIb_2KGSgW-37">
          <mxGeometry x="132" y="440" width="148.75" height="70" as="geometry" />
        </mxCell>
        <mxCell id="P8uOvkB5zgrIb_2KGSgW-67" style="edgeStyle=orthogonalEdgeStyle;rounded=0;orthogonalLoop=1;jettySize=auto;html=1;exitX=0;exitY=0.5;exitDx=0;exitDy=0;entryX=0;entryY=0.5;entryDx=0;entryDy=0;" edge="1" parent="P8uOvkB5zgrIb_2KGSgW-37" source="P8uOvkB5zgrIb_2KGSgW-65" target="P8uOvkB5zgrIb_2KGSgW-38">
          <mxGeometry relative="1" as="geometry">
            <Array as="points">
              <mxPoint x="70" y="550" />
              <mxPoint x="70" y="70" />
            </Array>
          </mxGeometry>
        </mxCell>
        <mxCell id="P8uOvkB5zgrIb_2KGSgW-65" value="save literal to output file" style="rounded=1;whiteSpace=wrap;html=1;" vertex="1" parent="P8uOvkB5zgrIb_2KGSgW-37">
          <mxGeometry x="132" y="530" width="152" height="40" as="geometry" />
        </mxCell>
        <mxCell id="P8uOvkB5zgrIb_2KGSgW-57" value="End" style="html=1;dashed=0;whiteSpace=wrap;shape=mxgraph.dfd.start" vertex="1" parent="1">
          <mxGeometry x="1600" y="975" width="80" height="30" as="geometry" />
        </mxCell>
        <mxCell id="P8uOvkB5zgrIb_2KGSgW-58" style="edgeStyle=orthogonalEdgeStyle;rounded=0;orthogonalLoop=1;jettySize=auto;html=1;exitX=1;exitY=0.5;exitDx=0;exitDy=0;" edge="1" parent="1" source="P8uOvkB5zgrIb_2KGSgW-41" target="P8uOvkB5zgrIb_2KGSgW-57">
          <mxGeometry relative="1" as="geometry" />
        </mxCell>
        <mxCell id="P8uOvkB5zgrIb_2KGSgW-56" value="Yes" style="edgeStyle=orthogonalEdgeStyle;rounded=0;orthogonalLoop=1;jettySize=auto;html=1;exitX=1;exitY=0.5;exitDx=0;exitDy=0;entryX=0;entryY=0.25;entryDx=0;entryDy=0;" edge="1" parent="1" source="P8uOvkB5zgrIb_2KGSgW-14" target="P8uOvkB5zgrIb_2KGSgW-37">
          <mxGeometry relative="1" as="geometry">
            <mxPoint x="1070" y="991" as="targetPoint" />
          </mxGeometry>
        </mxCell>
      </root>
    </mxGraphModel>
  </diagram>
</mxfile>
